<svg width="149" height="176" viewBox="0 0 149 176" fill="none" xmlns="http://www.w3.org/2000/svg">
<path d="M53.5213 5.93263L44.4946 14.8771L117.45 45.2177L78.2703 5.89586C71.4072 -0.843778 60.3753 -0.977734 53.5213 5.93263ZM17.8948 175.908L131.106 175.987C134.535 176.029 137.9 175.068 140.789 173.222C143.678 171.376 145.965 168.726 147.368 165.598C148.241 163.497 148.745 161.148 148.729 158.678L148.851 88.8861C148.866 81.7851 144.433 75.5823 138.522 72.9344C136.455 71.98 133.944 71.4095 131.541 71.2631L18.195 71.5073C14.7633 71.4195 11.3846 72.3668 8.49876 74.2258C5.61288 76.0849 3.35344 78.7696 2.01452 81.9306C1.14093 84.0312 0.752088 86.3334 0.63922 88.6556L0.551293 158.366C0.526095 162.992 2.33892 167.438 5.59121 170.728C8.84349 174.018 13.269 175.881 17.8948 175.908ZM41.4575 32.6619C37.172 30.8796 32.3541 30.8728 28.0636 32.6428C23.7731 34.4129 20.3614 37.8148 18.5792 42.1003L13.7072 53.8151L92.6795 53.9641" fill="#AACE9B"/>
</svg>
